<?xml version="1.0" encoding="UTF-8" standalone="no"?>
<!--
Representation of "nasin nanpa lon monsi" in sitelen ilo pona
Generated by generate_sitelen_kalama_pona.py

Description:
  Representation of "nasin nanpa lon monsi" in sitelen ilo pona.
  Sources: nasin-nanpa: https://commons.wikimedia.org/wiki/File:Sitelen_seli_kiwen_-_nasin-nanpa.svg; lon: https://commons.wikimedia.org/wiki/File:Sitelen_seli_kiwen_-_lon.svg; monsi: https://commons.wikimedia.org/wiki/File:Sitelen_seli_kiwen_-_monsi.svg

Categories:
  [[Category:Sitelen kalama pona]]
  [[Category:Toki Pona text containing nasin nanpa lon monsi]]

Sources:
  nasin-nanpa: https://commons.wikimedia.org/wiki/File:Sitelen_seli_kiwen_-_nasin-nanpa.svg
  lon: https://commons.wikimedia.org/wiki/File:Sitelen_seli_kiwen_-_lon.svg
  monsi: https://commons.wikimedia.org/wiki/File:Sitelen_seli_kiwen_-_monsi.svg
-->
<svg version="1.1" width="2747" height="1000"
     viewBox="0 0 2747 1000"
     xmlns="http://www.w3.org/2000/svg">
  <path d="M262 142Q262 156 262.0 170.0Q262 184 262.0 194.0Q262 204 262.5 211.5Q263 219 263 224V228Q263 246 260.0 252.0Q257 258 257 262Q257 274 263.5 301.0Q270 328 270 343Q270 345 269.5 348.5Q269 352 269 353L266 368L255 354Q245 341 245 336Q245 334 239.5 329.5Q234 325 226.5 317.5Q219 310 216 303Q207 285 191 285Q182 285 166.5 293.5Q151 302 151 310Q151 311 153 315Q157 320 162.5 335.0Q168 350 177 358Q189 370 189 372Q189 375 212.5 402.0Q236 429 236 436Q236 441 247.5 451.5Q259 462 259.0 464.0Q259 466 261.5 468.5Q264 471 266.5 476.5Q269 482 271.5 503.5Q274 525 274 560Q274 626 267 634Q260 639 265.5 642.0Q271 645 271 649Q271 652 268.0 659.0Q265 666 265 672Q265 680 271.0 690.0Q277 700 291 700Q298 700 316 695Q337 690 337 667Q337 666 336.0 658.5Q335 651 334.0 627.0Q333 603 332 564L331 482L353 437Q376 389 376 382Q376 374 393.5 357.0Q411 340 411.0 330.0Q411 320 414.5 316.0Q418 312 418 295Q418 277 414.0 267.5Q410 258 405.0 256.5Q400 255 390 255Q357 255 357 278Q357 290 344 316L330 346L329 306Q328 283 327.0 249.5Q326 216 326 208Q326 174 332 140L337 105Q337 100 334.0 100.0Q331 100 319.5 90.5Q308 81 294 81Q279 81 271.5 89.0Q264 97 263.0 107.0Q262 117 262 142ZM381 482Q381 490 382.0 494.5Q383 499 390.0 504.5Q397 510 411 510Q420 510 443.0 501.5Q466 493 473 493Q483 493 483 511Q483 514 481.5 543.5Q480 573 480 600Q480 639 483 672Q484 679 498.0 694.0Q512 709 525 709Q537 709 545.0 694.0Q553 679 553 663Q553 651 548.0 646.0Q543 641 539.0 605.5Q535 570 534.0 544.0Q533 518 533 511Q533 485 539.0 478.0Q545 471 566 464Q591 454 596 459Q599 462 603 564Q605 649 610.5 673.0Q616 697 634 697Q650 697 657.5 691.0Q665 685 666.5 678.0Q668 671 668 658Q668 623 662.0 561.0Q656 499 656 492Q656 467 660 467Q661 467 677.0 472.0Q693 477 704 477Q724 477 736.5 465.0Q749 453 749.0 434.0Q749 415 739.0 408.0Q729 401 705 400Q693 400 672 393Q657 388 652.5 374.0Q648 360 648 316Q648 258 647 243Q646 221 648.0 217.0Q650 213 662 213Q667 213 677.5 216.0Q688 219 698 219Q707 219 712 218L737 216V192Q737 170 733.0 163.5Q729 157 712 149Q699 144 690.0 144.0Q681 144 660 150Q653 152 652.5 145.5Q652 139 654.5 131.5Q657 124 653 121Q652 120 652 81Q652 44 627 44Q610 44 594.5 54.0Q579 64 579 79Q579 84 583.0 89.0Q587 94 587 111Q587 162 577 162H576Q574 162 571.5 161.5Q569 161 565.5 160.5Q562 160 557.0 160.0Q552 160 547 160H528L529 126V113Q529 88 523.0 78.0Q517 68 502 66Q483 65 472.0 76.0Q461 87 465 105Q467 117 467 132Q467 135 466.5 139.0Q466 143 466 145L464 169L439 180Q421 188 417.5 192.0Q414 196 414 211Q414 242 441 242Q442 242 445.0 241.5Q448 241 450 241Q456 241 459.0 242.0Q462 243 464.5 246.5Q467 250 468.5 256.0Q470 262 471.0 272.5Q472 283 472.5 298.0Q473 313 473 335Q473 336 473 337L475 425L461 422Q446 418 446.0 422.0Q446 426 433.0 433.0Q420 440 416 439Q414 439 406.5 442.0Q399 445 390.0 455.5Q381 466 381 482ZM601 392Q601 406 567 406Q559 406 555.0 403.0Q551 400 545 401Q544 401 542 402Q531 402 531 358Q532 317 532 311Q532 300 531.0 291.5Q530 283 530 274V263Q530 241 535.0 236.5Q540 232 567 230Q580 229 583.5 235.5Q587 242 587 274V298Q587 316 594.0 350.5Q601 385 601 392Z" transform="translate(0.00,958.33) scale(0.9583,-0.9583)" fill="#000000" />
  <path d="M150 252Q150 262 160.5 276.5Q171 291 190 291Q216 291 250.5 285.5Q285 280 296 280Q319 279 382.5 276.0Q446 273 458 273Q470 273 485.5 275.0Q501 277 506 277Q514 277 524.5 272.5Q535 268 538 269Q542 270 614.0 271.0Q686 272 702 278Q713 282 717.5 281.5Q722 281 730 276Q750 263 750 244Q750 213 712 213Q712 213 708.0 213.0Q704 213 695.5 213.5Q687 214 677.0 214.0Q667 214 652.0 214.0Q637 214 622 214Q611 214 601.0 214.0Q591 214 584.5 214.0Q578 214 573.0 213.5Q568 213 566.0 213.0Q564 213 563.5 213.0Q563 213 547.0 213.5Q531 214 505.5 214.5Q480 215 451.5 215.5Q423 216 394.0 216.5Q365 217 346 217Q333 217 322.0 217.0Q311 217 304.0 216.5Q297 216 291.5 216.0Q286 216 283.5 216.0Q281 216 280 216Q273 216 234.5 219.5Q196 223 184 224Q169 225 159.5 233.0Q150 241 150 252ZM388 467Q388 471 393.0 483.0Q398 495 412.5 508.0Q427 521 446 521Q471 521 489.5 491.0Q508 461 508 441Q508 422 487.5 410.0Q467 398 446.0 398.0Q425 398 406.5 422.5Q388 447 388 467Z" transform="translate(942.50,958.33) scale(0.9583,-0.9583)" fill="#000000" />
  <path d="M324 422Q324 418 322.5 412.0Q321 406 317.5 397.0Q314 388 304.0 381.5Q294 375 280 375Q208 375 194 391Q186 398 186 417Q186 443 192.0 460.5Q198 478 202.5 483.0Q207 488 216 494Q235 508 246 508Q268 508 296.0 479.5Q324 451 324 422ZM422 103Q422 107 424.0 118.0Q426 129 426 142Q424 162 424 203Q424 240 427.5 257.5Q431 275 432 312Q434 339 436.0 360.0Q438 381 440.0 391.5Q442 402 442 406Q442 409 440 415Q436 422 440.0 432.5Q444 443 442 447Q439 451 445.5 459.0Q452 467 444 470Q440 473 440 487Q440 494 441.0 506.5Q442 519 442 529Q442 563 436.0 605.5Q430 648 424 662Q419 670 420.5 675.0Q422 680 432 691Q444 704 449.5 706.0Q455 708 480 708Q513 708 521.5 712.0Q530 716 576 716Q645 716 661.5 714.0Q678 712 686 702Q694 691 694 680Q694 668 681.5 653.0Q669 638 650 638Q649 638 637.0 639.5Q625 641 598.5 642.5Q572 644 534 644Q514 644 511.0 643.5Q508 643 508 639Q508 630 510.0 602.0Q512 574 512 557Q512 557 511.0 548.5Q510 540 509.0 526.5Q508 513 507.0 497.5Q506 482 505.0 464.5Q504 447 504 433Q504 432 499.5 371.0Q495 310 490.5 245.5Q486 181 486 172Q486 164 487.0 160.5Q488 157 495.5 154.5Q503 152 515.0 151.5Q527 151 554 151Q570 151 584.5 151.5Q599 152 609.5 153.0Q620 154 628.5 154.5Q637 155 641.0 155.5Q645 156 646 156Q662 156 688.0 139.5Q714 123 714 106Q714 102 712.5 97.0Q711 92 706.5 86.5Q702 81 696 81Q687 81 682.5 75.0Q678 69 672 76Q665 80 600 80Q599 80 548.0 79.5Q497 79 496 79Q451 79 436.5 83.5Q422 88 422 103Z" transform="translate(1885.00,958.33) scale(0.9583,-0.9583)" fill="#000000" />
</svg>
